<?xml version="1.0" encoding="UTF-8" standalone="no"?>
<!-- Created with Inkscape (http://www.inkscape.org/) -->

<svg
   version="1.1"
   id="svg1"
   width="2456.8167"
   height="2149.78"
   viewBox="0 0 2456.8166 2149.78"
   sodipodi:docname="under_construction.svg"
   inkscape:version="1.3.2 (091e20ef0f, 2023-11-25, custom)"
   xmlns:inkscape="http://www.inkscape.org/namespaces/inkscape"
   xmlns:sodipodi="http://sodipodi.sourceforge.net/DTD/sodipodi-0.dtd"
   xmlns="http://www.w3.org/2000/svg"
   xmlns:svg="http://www.w3.org/2000/svg">
  <defs
     id="defs1" />
  <sodipodi:namedview
     id="namedview1"
     pagecolor="#ffffff"
     bordercolor="#000000"
     borderopacity="0.25"
     inkscape:showpageshadow="2"
     inkscape:pageopacity="0.0"
     inkscape:pagecheckerboard="0"
     inkscape:deskcolor="#d1d1d1"
     inkscape:zoom="0.31557892"
     inkscape:cx="1280.1869"
     inkscape:cy="1093.2289"
     inkscape:window-width="1920"
     inkscape:window-height="1056"
     inkscape:window-x="1920"
     inkscape:window-y="0"
     inkscape:window-maximized="1"
     inkscape:current-layer="g1">
    <inkscape:page
       x="0"
       y="0"
       inkscape:label="1"
       id="page1"
       width="2456.8167"
       height="2149.78"
       margin="0"
       bleed="0" />
  </sodipodi:namedview>
  <g
     id="g1"
     inkscape:groupmode="layer"
     inkscape:label="1"
     transform="translate(-121.48854,-275.00672)">
    <g
       id="group-R5">
      <path
         id="path3"
         d="M 10161.3,17542 14417.8,10169.5 18674.3,2797 H 1648.27 l 4256.52,7372.5 4256.51,7372.5"
         style="fill:#fdbf0f;fill-opacity:1;fill-rule:nonzero;stroke:none"
         transform="matrix(0.13333333,0,0,-0.13333333,0,2699.8)" />
      <path
         id="path4"
         d="M 2472.55,3227.6 H 17775.9 L 10124.2,16480.8 Z M 18711.5,2062.6 H 1536.96 c -481.02,0 -781.659,520.7 -541.147,937.3 L 9583.07,17873.5 c 240.51,416.6 841.83,416.6 1082.33,0 L 19252.6,2999.9 c 240.6,-416.6 -60.1,-937.3 -541.1,-937.3"
         style="fill:#000000;fill-opacity:1;fill-rule:nonzero;stroke:none"
         transform="matrix(0.13333333,0,0,-0.13333333,0,2699.8)" />
      <path
         id="path5"
         d="m 10084.9,3533.3 h 5478.4 c 71.5,0 120.7,72.1 93.9,138.4 -81.4,202.1 -322.9,576.6 -1024.4,787 -27.9,8.4 -47.6,33 -48.9,62.1 -8.4,188.5 -95.6,857 -921.8,634.2 -14.5,-3.9 -29.6,3.7 -34.6,17.8 -40.7,114 -231.2,576.8 -639.1,576.8 0,0 -524,8.8 -666.1,-469.4 -5.5,-18.2 -23.4,-29.5 -42.3,-27.7 -108.1,10.8 -453.7,13.8 -675.8,-341.6 -7,-11.3 -18.6,-18.9 -31.8,-20.2 -105.1,-10.3 -578.4,-80.7 -627.1,-518.3 0,0 -533.2,-82 -922.8,-728.5 -29.24,-48.5 5.7,-110.6 62.4,-110.6"
         style="fill:#000000;fill-opacity:1;fill-rule:nonzero;stroke:none"
         transform="matrix(0.13333333,0,0,-0.13333333,0,2699.8)" />
      <path
         id="path6"
         d="m 9421.48,7625.7 -364.14,296.2 c -27.7,22.6 -24.5,65.8 6.23,84 l 720.07,426.9 c 26.84,15.9 60.25,-7.7 53.48,-38.2 -45.43,-204.5 -245.96,-597.7 -326.53,-750.8 -17.3,-32.8 -60.32,-41.5 -89.11,-18.1 z M 8126.54,9233 l 33.54,536.7 c 1.92,30.7 27.4,54.7 58.17,54.7 h 520.97 c 22.01,0 32.86,-26.8 17.06,-42.1 l -586.81,-569 c -16.62,-16.2 -44.38,-3.4 -42.93,19.7 z m 2971.56,187.8 -801.8,1060.9 c -55.1,72.8 -141.1,115.6 -232.5,115.6 H 7787.27 c -394.57,0 -344.22,-287.3 -344.22,-287.3 l 16.57,-1715.6 c 0.96,-99.6 -32.41,-196.6 -94.52,-274.5 l -227.33,-285.4 c -91.35,-114.7 -137.37,-258.9 -129.31,-405.3 l 74,-1343.9 c 3.23,-58.7 -2.64,-117.6 -17.41,-174.6 L 6545.2,4106 c -8.15,-31.4 -14.88,-63.3 -17.83,-95.6 -38.99,-428.2 432.18,-477.2 432.18,-477.2 198.38,-43.2 328.35,18.4 408.73,90.8 62.1,56 104.3,130.7 126.38,211.3 l 600.43,2192.5 41.04,990 808.68,-962.4 c 48.95,-58.3 58.69,-140 24.8,-208.2 L 8148.92,4197.4 c -21.48,-43.2 -39.7,-88.2 -52.21,-134.7 -102.01,-379.7 185.27,-529.5 185.27,-529.5 171.01,-107.1 321.5,-107.1 429.25,-80.3 98.11,24.3 179.25,93.2 225,183.4 l 1089.67,2147.9 c 72.4,142.7 64.7,312.9 -20.2,448.4 l -119.81,191.1 c -49.81,79.5 -52.84,179.6 -7.91,262 l 1179.12,2160.5 c 205.2,342 41,574.6 41,574.6"
         style="fill:#000000;fill-opacity:1;fill-rule:nonzero;stroke:none"
         transform="matrix(0.13333333,0,0,-0.13333333,0,2699.8)" />
      <path
         id="path7"
         d="m 12349.9,10405.8 c 0,-430.7 -349.1,-779.8 -779.8,-779.8 -430.7,0 -779.8,349.1 -779.8,779.8 0,430.7 349.1,779.8 779.8,779.8 430.7,0 779.8,-349.1 779.8,-779.8"
         style="fill:#000000;fill-opacity:1;fill-rule:nonzero;stroke:none"
         transform="matrix(0.13333333,0,0,-0.13333333,0,2699.8)" />
      <path
         id="path8"
         d="M 12295.7,4707.4 6760.17,9114.5 c -93.64,74.6 -109.11,210.9 -34.56,304.5 l 2.73,3.5 c 74.55,93.6 210.88,109.1 304.52,34.5 l 5535.54,-4407.1 -272.7,-342.5"
         style="fill:#000000;fill-opacity:1;fill-rule:nonzero;stroke:none"
         transform="matrix(0.13333333,0,0,-0.13333333,0,2699.8)" />
    </g>
  </g>
</svg>
